<?xml version="1.0" standalone="no"?>
<!DOCTYPE svg PUBLIC "-//W3C//DTD SVG 20010904//EN"
 "http://www.w3.org/TR/2001/REC-SVG-20010904/DTD/svg10.dtd">
<svg version="1.0" xmlns="http://www.w3.org/2000/svg"
 width="555.000000pt" height="555.000000pt" viewBox="0 0 555.000000 555.000000"
 preserveAspectRatio="xMidYMid meet">

<g transform="translate(0.000000,555.000000) scale(0.100000,-0.100000)"
fill="#000000" stroke="none">
<path d="M2550 5540 c-538 -31 -1007 -183 -1430 -465 -383 -255 -676 -562
-925 -969 -74 -121 -199 -355 -193 -361 2 -2 51 -14 108 -25 321 -66 622 -216
822 -408 146 -140 234 -289 286 -481 26 -96 26 -98 30 -553 l3 -458 31 0 30 0
-5 418 c-4 442 -9 497 -62 734 -123 547 -361 992 -675 1264 -55 48 -86 82 -81
87 12 12 203 -79 321 -152 380 -236 714 -650 929 -1153 72 -168 135 -360 196
-597 29 -113 54 -199 54 -191 2 28 -40 334 -65 479 -52 302 -116 556 -213 842
-168 497 -377 868 -649 1151 -52 54 -90 98 -85 98 24 0 218 -131 368 -249 211
-165 491 -440 650 -638 252 -314 451 -677 576 -1053 21 -63 38 -110 39 -103 1
29 -64 314 -109 478 -101 372 -208 659 -365 980 -182 373 -367 654 -597 908
-53 58 -66 77 -51 77 10 0 86 -34 169 -75 415 -205 726 -491 933 -858 73 -129
69 -122 74 -116 7 7 -50 269 -84 384 -85 291 -229 582 -401 807 -33 44 -59 82
-57 84 8 8 123 -18 186 -42 135 -51 280 -175 387 -332 45 -67 51 -72 62 -55
196 270 397 422 560 423 l53 0 -74 -99 c-172 -232 -303 -499 -389 -796 -38
-132 -80 -327 -75 -350 2 -8 29 31 61 88 175 311 443 579 777 775 86 51 249
128 309 147 17 5 -2 -23 -70 -103 -309 -362 -564 -811 -747 -1312 -103 -285
-220 -680 -262 -887 -30 -151 -24 -153 24 -8 99 300 201 507 382 780 208 314
479 607 804 870 156 126 400 291 400 270 0 -3 -40 -48 -88 -98 -274 -289 -492
-682 -662 -1197 -96 -290 -176 -642 -224 -980 -47 -337 -43 -361 18 -104 97
410 249 770 457 1084 237 357 505 600 839 765 107 52 150 66 150 47 0 -5 -36
-39 -80 -77 -277 -236 -494 -611 -634 -1094 -84 -287 -106 -495 -106 -982 l0
-339 30 0 30 0 0 419 c0 521 11 603 110 801 161 321 548 577 1031 682 l107 23
-60 120 c-433 863 -1169 1444 -2053 1620 -243 48 -565 70 -825 55z"/>
<path d="M971 1305 c-68 -187 -134 -367 -147 -402 l-24 -63 23 0 c20 0 28 17
76 150 l54 151 140 -3 140 -3 55 -147 c44 -119 58 -148 73 -148 11 0 19 4 19
8 0 4 -62 179 -139 389 -76 209 -140 386 -143 393 -2 7 -60 -139 -127 -325z
m183 46 c31 -84 56 -157 56 -162 0 -5 -54 -9 -120 -9 -66 0 -120 1 -120 3 0 6
111 311 116 319 3 5 7 8 9 6 2 -2 29 -72 59 -157z"/>
<path d="M4590 1630 c-116 -25 -238 -121 -288 -227 -24 -52 -27 -69 -27 -168
0 -99 3 -116 27 -168 52 -111 158 -197 282 -228 100 -25 242 5 324 68 30 22
32 27 19 40 -12 12 -20 11 -58 -15 -177 -120 -430 -49 -526 147 -25 49 -28 68
-28 151 0 82 4 103 26 151 52 111 151 186 275 208 89 16 190 -7 265 -60 27
-19 33 -20 45 -7 13 13 10 18 -24 42 -86 59 -214 86 -312 66z"/>
<path d="M10 1236 c0 -388 0 -396 20 -396 19 0 20 8 22 352 l3 352 145 -252
c80 -138 148 -252 151 -252 4 0 71 112 150 250 79 137 147 250 152 250 4 0 7
-157 7 -350 0 -343 0 -350 20 -350 20 0 20 7 20 396 l0 395 -27 -3 c-23 -3
-44 -34 -172 -255 -80 -139 -148 -253 -151 -253 -3 0 -70 114 -151 253 -113
196 -150 253 -167 255 l-22 3 0 -395z"/>
<path d="M1490 1236 c0 -389 0 -396 20 -396 19 0 20 7 20 135 l0 135 78 0 77
-1 84 -134 c69 -111 89 -135 108 -135 13 0 23 2 23 5 0 3 -38 64 -85 136 -47
71 -85 132 -85 134 0 3 15 11 33 18 121 51 188 203 142 323 -22 58 -75 119
-129 147 -34 17 -63 22 -163 25 l-123 4 0 -396z m233 343 c49 -13 115 -73 138
-124 47 -102 2 -222 -103 -276 -29 -15 -58 -19 -133 -19 l-95 0 0 215 0 215
78 0 c42 0 94 -5 115 -11z"/>
<path d="M2030 1236 c0 -389 0 -396 20 -396 19 0 20 7 20 135 l0 136 77 -3 77
-3 83 -130 c66 -102 89 -131 108 -133 14 -2 25 -1 25 2 0 3 -38 64 -85 136
-47 72 -85 133 -85 135 0 3 15 11 33 18 121 51 188 203 142 323 -22 58 -75
119 -129 147 -34 17 -63 22 -163 25 l-123 4 0 -396z m233 343 c49 -13 115 -73
138 -124 46 -101 1 -223 -102 -276 -30 -15 -59 -19 -134 -19 l-95 0 0 215 0
215 78 0 c42 0 94 -5 115 -11z"/>
<path d="M2666 1247 c-76 -210 -141 -388 -144 -395 -3 -10 2 -13 19 -10 20 3
30 22 75 148 l52 145 140 3 140 3 54 -148 c47 -127 58 -148 78 -151 16 -3 21
0 18 10 -3 7 -68 185 -144 395 -77 211 -141 383 -144 383 -3 0 -67 -172 -144
-383z m207 104 c31 -87 57 -161 57 -165 0 -3 -54 -6 -120 -6 -66 0 -120 3
-120 6 0 13 115 324 120 324 3 0 31 -72 63 -159z"/>
<path d="M3200 1235 l0 -395 25 0 25 0 0 193 c0 158 3 197 16 215 8 12 19 22
23 22 4 0 65 -89 134 -197 156 -245 148 -236 175 -231 20 3 7 26 -124 228 -81
124 -148 229 -150 235 -3 6 47 80 111 165 63 84 115 155 115 157 0 2 -11 3
-24 3 -19 0 -48 -32 -147 -165 l-124 -166 -3 166 -2 165 -25 0 -25 0 0 -395z"/>
<path d="M3750 1235 l0 -395 195 0 c188 0 195 1 195 20 0 19 -7 20 -175 20
l-175 0 0 165 0 165 175 0 c168 0 175 1 175 20 0 19 -7 20 -175 20 l-175 0 0
170 0 170 175 0 c168 0 175 1 175 20 0 19 -7 20 -195 20 l-195 0 0 -395z"/>
<path d="M5070 1235 c0 -388 0 -395 20 -395 19 0 20 7 20 175 l0 175 170 0
170 0 0 -175 c0 -168 1 -175 20 -175 20 0 20 7 20 395 0 388 0 395 -20 395
-19 0 -20 -7 -20 -195 l0 -195 -170 0 -170 0 0 195 c0 188 -1 195 -20 195 -20
0 -20 -7 -20 -395z"/>
<path d="M1250 490 l0 -180 1495 0 1495 0 0 180 0 180 -30 0 -30 0 0 -160 0
-160 -1435 0 -1435 0 0 160 0 160 -30 0 -30 0 0 -180z"/>
</g>
</svg>
